<svg width="256" height="256" viewBox="0 0 256 256" fill="none" xmlns="http://www.w3.org/2000/svg">
  <rect width="256" height="256" rx="36" fill="#1A1714"/>
  <g transform="translate(25,38) scale(2)">
    <path fill="#C45A3A" d="M9,43 C9,41 10,40 13,40 L17,39 C18,37 20,37 21,36 C21,32 22,28 24,27 C26,28 26,31 25,34 C26,33 28,32 30,32 C31,26 36,17 43,14 C49,11 53,15 55,23 C56,29 61,30 68,31 L85,33 C92,34 96,36 96,43 C96,48 95,51 93,54 L93,76 L86,76 L86,55 C73,56 61,56 50,56 L48,56 L48,76 L40,76 L40,58 C40,64 37,69 33,69 C29,69 28,63 28,58 C21,57 14,53 10,49 C8,47 8,45 9,43 Z"/>
    <circle cx="20" cy="40" r="1.5" fill="#1A1714"/>
  </g>
</svg>
